:version 1.10
:name ASF
:units
  mass 1
  length 1
  angle deg
:documentation
  ASF file generated by Kaydara
:root
  axis xyz
  order  tx ty tz rx ry rz
  position 0 0 0
  orientation 0 0 0
:bonedata
  begin
    id 1
    name RightUpLegDummy
    direction -0.718183 -0.695806 0.00816078
    length 4.904
    axis 0 0 0 xyz
  end
  begin
    id 2
    name RightUpLeg
    direction 3.53989e-006 -0.995788 0.0916897
    length 17.4976
    axis -3.49089 -0.000906621 0.000287158 xyz
    dof rx ry rz
  end
  begin
    id 3
    name RightLeg
    direction 0.00371093 -0.995096 -0.0988418
    length 16.5821
    axis 3.68512 0.0193738 -0.131023 xyz
    dof rx ry rz
  end
  begin
    id 4
    name RightFoot
    direction 0.000791514 -0.46099 0.887405
    length 3.77069
    axis 4.84075e-005 -0.120479 -0.188788 xyz
    dof rx ry rz
  end
  begin
    id 5
    name RightToes
    direction 0.00124746 -0.014064 0.9999
    length 3.85082
    axis 0.00048216 0.542163 -0.142577 xyz
    dof rx ry rz
  end
  begin
    id 6
    name SpineDummy
    direction 8.3039e-015 1 4.57515e-016
    length 4.6813
    axis 0 0 0 xyz
  end
  begin
    id 7
    name Spine
    direction -4.63632e-008 0.999988 0.00495137
    length 10.1015
    axis -0.00138897 0.000121419 3.25764e-006 xyz
    dof rx ry rz
  end
  begin
    id 8
    name Spine1
    direction 0 0 0
    length 0
    axis -0.00138896 0.000121452 2.39764e-006 xyz
    dof rx ry rz
  end
  begin
    id 9
    name HEadDummy
    direction -3.91456e-008 0.999999 0.00127422
    length 3.43865
    axis -0.00138896 0.000121452 2.39764e-006 xyz
  end
  begin
    id 10
    name HEad
    direction -0.0222688 0.980941 0.193023
    length 5.12695
    axis -0.00138895 0.000121452 2.39764e-006 xyz
    dof rx ry rz
  end
  begin
    id 11
    name LeftShoulder1Dummy
    direction 0.998891 -0.0402508 -0.0244456
    length 3.5433
    axis -0.00138896 0.000121452 2.39764e-006 xyz
  end
  begin
    id 12
    name LeftShoulder1
    direction 0.99951 -0.000327743 0.0313091
    length 4.05031
    axis -0.00138896 0.000121452 2.39764e-006 xyz
    dof rx ry rz
  end
  begin
    id 13
    name LeftArm
    direction 0.998561 -0.00100054 -0.0536182
    length 10.3537
    axis -23.1894 0.134784 0.96751 xyz
    dof rx ry rz
  end
  begin
    id 14
    name LeftForeArm
    direction 0.998903 0.00866434 0.046012
    length 8.70632
    axis -9.91835 -0.06569 -0.177792 xyz
    dof rx ry rz
  end
  begin
    id 15
    name LeftHand
    direction 0.992938 -0.0411636 0.11126
    length 5.32135
    axis -0.00960227 -0.00340091 0.185174 xyz
    dof rx ry rz
  end
  begin
    id 16
    name RightShoulderDummy
    direction -0.998891 -0.0402509 -0.0244414
    length 3.5433
    axis -0.00138896 0.000121452 2.39764e-006 xyz
  end
  begin
    id 17
    name RightShoulder
    direction -0.99951 -0.000327827 0.0313133
    length 4.05031
    axis 0.215806 0.000203644 -0.00680151 xyz
    dof rx ry rz
  end
  begin
    id 18
    name RightArm
    direction -0.998573 -0.000999583 -0.053403
    length 10.3947
    axis -23.2009 -0.134239 -0.9641 xyz
    dof rx ry rz
  end
  begin
    id 19
    name RightForeArm
    direction -0.998898 0.00868026 0.0461306
    length 8.68355
    axis -9.92322 0.0658061 0.178869 xyz
    dof rx ry rz
  end
  begin
    id 20
    name RightHand
    direction -0.992843 -0.0414603 0.112003
    length 5.28593
    axis -0.00960634 0.00330671 -0.185226 xyz
    dof rx ry rz
  end
  begin
    id 21
    name LeftUpLegDummy
    direction 0.718183 -0.695806 0.00816078
    length 4.904
    axis 0 0 0 xyz
  end
  begin
    id 22
    name LeftUpLeg
    direction -6.8115e-006 -0.995793 0.0916336
    length 17.4976
    axis -3.48766 0.00143441 -0.000523914 xyz
    dof rx ry rz
  end
  begin
    id 23
    name LeftLeg
    direction -0.00601357 -0.995091 -0.0987824
    length 16.5821
    axis 3.68177 -0.00654038 -0.00028478 xyz
    dof rx ry rz
  end
  begin
    id 24
    name LeftFoot
    direction -0.00417578 -0.460984 0.887399
    length 3.77069
    axis 1.87232e-006 4.66002e-005 -8.1837e-006 xyz
    dof rx ry rz
  end
  begin
    id 25
    name LeftToes
    direction 0.00818058 -0.00485161 0.999955
    length 3.85048
    axis 1.06246e-005 4.65855e-005 -8.18502e-006 xyz
    dof rx ry rz
  end
:hierarchy
  begin
    root RightUpLegDummy SpineDummy LeftUpLegDummy
    RightUpLegDummy RightUpLeg
    RightUpLeg RightLeg
    RightLeg RightFoot
    RightFoot RightToes
    SpineDummy Spine
    Spine Spine1
    Spine1 HEadDummy LeftShoulder1Dummy RightShoulderDummy
    HEadDummy HEad
    LeftShoulder1Dummy LeftShoulder1
    LeftShoulder1 LeftArm
    LeftArm LeftForeArm
    LeftForeArm LeftHand
    RightShoulderDummy RightShoulder
    RightShoulder RightArm
    RightArm RightForeArm
    RightForeArm RightHand
    LeftUpLegDummy LeftUpLeg
    LeftUpLeg LeftLeg
    LeftLeg LeftFoot
    LeftFoot LeftToes
  end

:SAMPLES-PER-SECOND 30
:FRAME-RANGE 1-1770
:FULLY-SPECIFIED
:DEGREES
56
root  33.375 38.816 15.408 -178.719 -14.007 -173.941
RightUpLeg  -19.9891 4.89127 6.36104
RightLeg  18.6557 -0.950623 -0.866829
RightFoot  -1.84093 -0.2897 3.33335
RightToes  -1.33073e-015 0 -3.6325e-017
Spine  -7.06736 -2.22851 4.41464
Spine1  10.5348 -3.58971 5.26552
HEad  -8.3591 32.9499 -10.7858
LeftShoulder1  0.939028 0.128423 -23.378
LeftArm  -2.8192 8.24505 -50.9912
LeftForeArm  32.0376 7.61279 -12.5923
LeftHand  -0.00221808 5.75058 6.87415
RightShoulder  0.85728 -0.771395 27.6884
RightArm  -33.0386 -5.63423 45.4593
RightForeArm  68.5905 -4.59321 -1.00759
RightHand  0.183917 -6.22018 -26.0447
LeftUpLeg  -1.41689 3.61755 6.94567
LeftLeg  44.1287 -6.24734 -6.06205
LeftFoot  -2.06323 1.21456 -14.7497
LeftToes  1.09107e-011 -1.16422e-010 2.98337e-011
57
root  33.2264 38.7285 14.6413 -179.296 -14.7097 -173.289
RightUpLeg  -19.0604 4.0473 7.22839
RightLeg  20.4155 -0.792004 -0.792441
RightFoot  -4.16319 -0.214419 2.96525
RightToes  -1.33073e-015 0 -3.6325e-017
Spine  -6.3075 -2.14897 5.9153
Spine1  10.3624 -3.34037 5.33433
HEad  -7.8935 32.5533 -10.7368
LeftShoulder1  0.938881 0.122342 -23.2747
LeftArm  -2.56844 7.77471 -50.8322
LeftForeArm  31.5915 6.66456 -12.5972
LeftHand  -0.00417881 5.71676 6.84743
RightShoulder  0.906976 -0.609763 27.5147
RightArm  -31.8703 -4.85952 45.8284
RightForeArm  68.5307 -4.72517 -0.252229
RightHand  0.177606 -6.18298 -26.3003
LeftUpLeg  -5.66644 3.77706 8.41446
LeftLeg  51.6814 -5.46354 -6.93131
LeftFoot  3.13015 1.89549 -15.0089
LeftToes  1.09107e-011 -1.16422e-010 2.98337e-011
58
root  33.0525 38.7434 13.855 -179.754 -15.1894 -173.152
RightUpLeg  -17.5574 3.51908 7.5613
RightLeg  21.1371 -0.779068 -0.838471
RightFoot  -5.95577 -0.169641 2.74479
RightToes  -1.33073e-015 0 -3.6325e-017
Spine  -5.80872 -1.87217 6.66381
Spine1  10.1807 -2.94595 5.31443
HEad  -7.52136 32.2018 -10.6307
LeftShoulder1  0.936785 0.112578 -23.3184
LeftArm  -2.62233 7.01606 -50.8107
LeftForeArm  31.7237 5.60507 -12.4886
LeftHand  -0.0145626 5.51964 7.02086
RightShoulder  0.960491 -0.446948 27.4862
RightArm  -30.8138 -3.30445 45.921
RightForeArm  68.8266 -4.81353 0.3309
RightHand  0.13456 -5.99154 -26.4266
LeftUpLeg  -9.39646 3.88568 9.04307
LeftLeg  56.8687 -3.23854 -4.832
LeftFoot  2.35783 1.58979 -13.3068
LeftToes  1.09107e-011 -1.16422e-010 2.98337e-011
59
root  32.8528 38.805 13.0759 179.917 -15.4146 -173.462
RightUpLeg  -15.8468 2.81337 7.37501
RightLeg  21.4405 -0.295469 -0.65752
RightFoot  -7.51311 -0.132359 2.43277
RightToes  -1.33073e-015 0 -3.6325e-017
Spine  -5.43717 -1.49384 6.96505
Spine1  9.95045 -2.43291 4.98513
HEad  -7.08174 32.1265 -10.4809
LeftShoulder1  0.930027 0.116182 -23.1297
LeftArm  -2.3372 6.27278 -50.9994
LeftForeArm  31.8025 4.19072 -12.4839
LeftHand  -0.0190878 5.43236 7.27962
RightShoulder  1.05829 -0.162472 27.5866
RightArm  -29.5667 -1.02786 45.927
RightForeArm  69.3491 -4.90011 0.957602
RightHand  0.229251 -6.37463 -27.064
LeftUpLeg  -12.6863 3.83127 9.03336
LeftLeg  59.2909 -1.33857 -1.89159
LeftFoot  0.19287 1.10323 -10.9114
LeftToes  1.09107e-011 -1.16422e-010 2.98337e-011
60
root  32.631 38.8486 12.3384 179.746 -15.5859 -173.822
RightUpLeg  -14.3042 1.72651 7.0252
RightLeg  21.6372 0.524998 -0.25804
RightFoot  -9.00414 -0.105058 2.15443
RightToes  -1.33073e-015 0 -3.6325e-017
Spine  -5.05082 -1.13662 7.16529
Spine1  9.53619 -1.9872 4.72315
HEad  -6.65748 32.347 -10.372
LeftShoulder1  0.90922 0.144594 -22.7106
LeftArm  -2.43423 5.65948 -51.5434
LeftForeArm  32.4623 2.8058 -12.3414
LeftHand  -0.0297146 5.25091 7.48311
RightShoulder  1.15817 0.158569 27.3648
RightArm  -28.9449 1.66489 46.3506
RightForeArm  70.1279 -4.90163 1.14442
RightHand  0.194855 -6.22687 -27.1233
LeftUpLeg  -15.7916 3.41017 9.02196
LeftLeg  59.3653 -0.139237 0.295581
LeftFoot  -1.88774 0.810045 -9.64432
LeftToes  1.09107e-011 -1.16422e-010 2.98337e-011
61
root  32.3925 38.8919 11.6254 179.684 -15.5211 -174.216
RightUpLeg  -12.8222 1.09761 6.59402
RightLeg  21.6946 1.15416 0.00268343
RightFoot  -10.3754 -0.0880514 2.09825
RightToes  -1.33073e-015 0 -3.6325e-017
Spine  -4.68672 -0.678219 7.41826
Spine1  9.03572 -1.43023 4.20501
HEad  -6.24354 32.5981 -10.1535
LeftShoulder1  0.89099 0.160055 -22.2461
LeftArm  -2.32658 5.03147 -52.0729
LeftForeArm  33.109 1.36291 -12.2621
LeftHand  -0.0391297 5.09713 7.59076
RightShoulder  1.27929 0.552789 27.1022
RightArm  -27.8004 4.42923 46.7675
RightForeArm  69.6894 -5.01068 1.68808
RightHand  0.177272 -6.15944 -26.9245
LeftUpLeg  -18.5327 2.82057 9.10748
LeftLeg  57.4558 0.814523 1.89888
LeftFoot  -4.71369 0.533808 -8.72039
LeftToes  1.09107e-011 -1.16422e-010 2.98337e-011
62
root  32.1491 38.924 10.9283 179.773 -15.2028 -174.735
RightUpLeg  -11.4499 0.904638 6.01948
RightLeg  21.6147 1.71237 0.182922
RightFoot  -11.6658 -0.0734516 1.98313
RightToes  -1.33073e-015 0 -3.6325e-017
Spine  -4.46156 -0.171434 7.37276
Spine1  8.61974 -0.856425 3.62405
HEad  -6.02814 32.7655 -9.94948
LeftShoulder1  0.863699 0.221792 -21.9082
LeftArm  -2.22384 4.22399 -52.4588
LeftForeArm  33.7617 0.23632 -12.1979
LeftHand  -0.0348631 5.16999 7.80849
RightShoulder  1.37007 0.874404 26.7248
RightArm  -26.8066 7.2955 47.5136
RightForeArm  68.8929 -5.11532 2.12639
RightHand  0.19895 -6.24316 -27.1501
LeftUpLeg  -20.8016 2.0393 9.28281
LeftLeg  53.7669 1.77718 3.08017
LeftFoot  -6.58494 0.360338 -7.71931
LeftToes  1.09107e-011 -1.16422e-010 2.98337e-011
63
root  31.8913 38.9653 10.251 179.873 -14.6842 -175.246
RightUpLeg  -10.1179 1.10594 5.45122
RightLeg  21.5604 1.97735 0.215624
RightFoot  -12.7757 -0.0610209 2.04021
RightToes  -1.33073e-015 0 -3.6325e-017
Spine  -4.24382 0.298743 7.15929
Spine1  8.29914 -0.353571 3.13152
HEad  -5.9283 32.9516 -9.75294
LeftShoulder1  0.849786 0.244716 -21.6478
LeftArm  -1.95565 3.47017 -52.7746
LeftForeArm  33.8793 -0.556284 -12.1949
LeftHand  -0.027547 5.28562 7.97574
RightShoulder  1.48319 1.26303 26.4181
RightArm  -25.5086 10.289 48.2081
RightForeArm  68.1863 -5.24312 2.72631
RightHand  0.141738 -6.00375 -27.0803
LeftUpLeg  -22.4371 0.872458 9.75202
LeftLeg  48.5707 2.79803 3.81825
LeftFoot  -7.70147 0.288856 -7.63234
LeftToes  1.09107e-011 -1.16422e-010 2.98337e-011
64
root  31.6197 39.011 9.59115 -179.947 -14.1098 -175.772
RightUpLeg  -8.80302 1.36118 4.80269
RightLeg  21.2729 2.25009 0.277561
RightFoot  -13.7282 -0.0473357 2.19178
RightToes  -1.33073e-015 0 -3.6325e-017
Spine  -4.05595 0.680058 6.68962
Spine1  8.00002 0.0291346 2.74391
HEad  -5.76166 33.1758 -9.58829
LeftShoulder1  0.856616 0.186667 -21.3309
LeftArm  -2.1709 2.81378 -53.1557
LeftForeArm  34.0852 -0.700689 -12.0847
LeftHand  -0.0437973 5.03489 8.01264
RightShoulder  1.58587 1.63695 26.038
RightArm  -24.248 13.2302 49.0806
RightForeArm  67.4615 -5.36102 3.26696
RightHand  0.152338 -6.04595 -27.1691
LeftUpLeg  -23.5748 -0.681879 10.5443
LeftLeg  42.3068 3.83783 4.11755
LeftFoot  -8.05571 0.261108 -7.41571
LeftToes  1.09107e-011 -1.16422e-010 2.98337e-011
65
root  31.3188 39.0525 8.9273 -179.621 -13.4687 -176.311
RightUpLeg  -7.54986 1.53048 4.0123
RightLeg  20.7737 2.84662 0.473576
RightFoot  -14.6584 -0.0355991 2.19918
RightToes  -1.33073e-015 0 -3.6325e-017
Spine  -4.09861 0.991159 6.07868
Spine1  7.91128 0.33584 2.37951
HEad  -5.69643 33.2857 -9.48815
LeftShoulder1  0.879789 0.0719995 -21.057
LeftArm  -2.14193 2.29814 -53.4185
LeftForeArm  34.2087 -0.639686 -12.091
LeftHand  -0.0423551 5.05618 7.9795
RightShoulder  1.66272 1.94543 25.6081
RightArm  -22.8998 15.9271 50.1458
RightForeArm  66.6719 -5.48591 3.83887
RightHand  0.132076 -5.96245 -27.0962
LeftUpLeg  -24.2154 -2.37727 11.637
LeftLeg  35.0952 4.43596 3.69634
LeftFoot  -7.05441 0.328221 -7.63351
LeftToes  1.09107e-011 -1.16422e-010 2.98337e-011
